<svg width="280" height="151" viewBox="0 0 280 151" fill="none" xmlns="http://www.w3.org/2000/svg">
<path d="M0 12C0 5.37259 5.37258 0 12 0H268C274.627 0 280 5.37258 280 12V139C280 145.627 274.627 151 268 151H206.126C195.444 151 184.832 149.289 174.691 145.931L165.148 142.771C148.819 137.363 131.181 137.363 114.852 142.771L105.309 145.931C95.1685 149.289 84.5555 151 73.8736 151H12C5.37258 151 0 145.627 0 139V12Z" fill="#303030" fill-opacity="0.5"/>
<path d="M77.9475 116.839C77.4856 116.839 77.0884 116.733 76.7558 116.52C76.4279 116.308 76.1784 116.012 76.0075 115.634C75.8366 115.255 75.7512 114.825 75.7512 114.345C75.7512 113.864 75.8366 113.435 76.0075 113.056C76.1831 112.673 76.4348 112.375 76.7628 112.162C77.0953 111.945 77.4903 111.837 77.9475 111.837C78.4002 111.837 78.7905 111.945 79.1185 112.162C79.4464 112.375 79.6959 112.67 79.8668 113.049C80.0377 113.428 80.1231 113.862 80.1231 114.352C80.1231 114.837 80.0377 115.266 79.8668 115.641C79.6959 116.015 79.4464 116.308 79.1185 116.52C78.7905 116.733 78.4002 116.839 77.9475 116.839ZM77.9406 116.285C78.2593 116.285 78.5365 116.204 78.772 116.042C79.0076 115.876 79.1878 115.645 79.3125 115.35C79.4372 115.054 79.4995 114.717 79.4995 114.338C79.4995 113.959 79.4372 113.622 79.3125 113.326C79.1878 113.031 79.0076 112.8 78.772 112.634C78.5365 112.467 78.2593 112.384 77.9406 112.384C77.6219 112.384 77.3448 112.47 77.1092 112.64C76.8736 112.807 76.6935 113.038 76.5688 113.333C76.444 113.629 76.3817 113.964 76.3817 114.338C76.3817 114.717 76.444 115.054 76.5688 115.35C76.6935 115.641 76.8736 115.869 77.1092 116.035C77.3448 116.202 77.6219 116.285 77.9406 116.285ZM83.1256 111.941H83.7977L86.3959 115.835H86.4236V111.941H87.0125V116.791H86.3335L83.7423 112.952H83.7145V116.791H83.1256V111.941ZM93.0735 116.25V116.791H90.212V111.941H90.8148L90.8078 116.25H93.0735ZM96.0133 111.941H96.616V116.791H96.0133V111.941ZM99.8378 111.941H100.51L103.108 115.835H103.136V111.941H103.725V116.791H103.046L100.454 112.952H100.427V116.791H99.8378V111.941ZM107.527 112.481V114.075H109.626V114.56H107.527V116.25H109.91V116.791H106.924V111.941H109.91V112.481H107.527ZM116.692 111.941H118.466C118.9 111.941 119.279 112.04 119.602 112.239C119.93 112.433 120.182 112.712 120.357 113.077C120.537 113.437 120.628 113.864 120.628 114.359C120.628 114.853 120.537 115.285 120.357 115.654C120.182 116.019 119.93 116.301 119.602 116.5C119.274 116.694 118.893 116.791 118.459 116.791H116.692V111.941ZM118.376 116.236C118.865 116.236 119.258 116.077 119.554 115.758C119.849 115.435 119.997 114.968 119.997 114.359C119.997 113.749 119.849 113.285 119.554 112.966C119.263 112.643 118.87 112.481 118.376 112.481H117.274V116.236H118.376ZM125.024 114.858H124.158V116.791H123.562V111.941H125.211C125.604 111.941 125.925 112.012 126.174 112.155C126.428 112.299 126.611 112.481 126.721 112.703C126.832 112.925 126.888 113.158 126.888 113.403C126.888 113.74 126.786 114.042 126.583 114.31C126.384 114.578 126.072 114.749 125.647 114.823L126.929 116.791H126.271L125.024 114.858ZM124.158 114.345H125.135C125.463 114.345 125.74 114.273 125.966 114.13C126.193 113.987 126.306 113.744 126.306 113.403C126.306 113.065 126.193 112.828 125.966 112.689C125.74 112.55 125.463 112.481 125.135 112.481H124.158V114.345ZM130.006 111.941H130.609V116.791H130.006V111.941ZM133.361 111.941H133.97L135.439 116.188H135.481L136.95 111.941H137.552L135.876 116.791H135.044L133.361 111.941ZM140.369 111.941H140.972V116.791H140.369V111.941ZM144.194 111.941H144.866L147.464 115.835H147.492V111.941H148.081V116.791H147.402L144.811 112.952H144.783V116.791H144.194V111.941ZM153.187 116.839C152.711 116.839 152.316 116.719 152.002 116.479C151.688 116.234 151.455 115.922 151.302 115.544C151.154 115.165 151.081 114.765 151.081 114.345C151.081 113.92 151.157 113.518 151.309 113.139C151.462 112.756 151.699 112.444 152.023 112.204C152.346 111.959 152.75 111.837 153.235 111.837C153.776 111.837 154.212 111.985 154.545 112.28C154.882 112.571 155.115 112.938 155.245 113.382H154.614C154.522 113.068 154.36 112.823 154.129 112.647C153.898 112.472 153.6 112.384 153.235 112.384C152.75 112.384 152.372 112.56 152.099 112.911C151.826 113.262 151.69 113.742 151.69 114.352C151.69 114.971 151.829 115.456 152.106 115.807C152.388 116.158 152.773 116.333 153.263 116.333C153.554 116.333 153.803 116.273 154.011 116.153C154.224 116.029 154.385 115.86 154.496 115.647C154.612 115.435 154.672 115.195 154.676 114.927L154.683 114.733H153.325V114.283H155.245V116.791H154.767V115.987H154.711C154.683 116.056 154.621 116.156 154.524 116.285C154.427 116.41 154.265 116.534 154.039 116.659C153.817 116.779 153.533 116.839 153.187 116.839ZM163.616 116.846C163.242 116.846 162.921 116.77 162.653 116.617C162.39 116.46 162.191 116.259 162.057 116.015C161.923 115.77 161.856 115.513 161.856 115.246V115.211H162.515V115.246C162.515 115.407 162.552 115.569 162.626 115.731C162.704 115.892 162.826 116.029 162.993 116.139C163.159 116.246 163.371 116.299 163.63 116.299C163.935 116.299 164.187 116.22 164.385 116.063C164.584 115.906 164.683 115.694 164.683 115.426C164.683 115.204 164.609 115.028 164.462 114.899C164.318 114.765 164.134 114.675 163.907 114.629L163.201 114.497C162.388 114.317 161.981 113.89 161.981 113.216C161.981 112.938 162.048 112.696 162.182 112.488C162.316 112.28 162.501 112.121 162.736 112.01C162.977 111.894 163.254 111.837 163.568 111.837C163.923 111.837 164.228 111.908 164.482 112.052C164.736 112.195 164.928 112.382 165.057 112.613C165.187 112.839 165.251 113.075 165.251 113.319V113.347H164.593V113.326C164.593 113.188 164.559 113.047 164.489 112.904C164.425 112.756 164.314 112.629 164.157 112.523C164.004 112.416 163.801 112.363 163.547 112.363C163.256 112.363 163.023 112.444 162.847 112.606C162.676 112.767 162.591 112.968 162.591 113.209C162.591 113.412 162.658 113.578 162.792 113.707C162.926 113.837 163.108 113.925 163.339 113.971L163.977 114.095C164.868 114.276 165.314 114.712 165.314 115.405C165.314 115.687 165.242 115.936 165.099 116.153C164.96 116.37 164.762 116.541 164.503 116.666C164.244 116.786 163.949 116.846 163.616 116.846ZM170.409 116.839C169.956 116.839 169.566 116.733 169.238 116.52C168.91 116.303 168.658 116.005 168.482 115.627C168.312 115.248 168.226 114.818 168.226 114.338C168.226 113.858 168.312 113.428 168.482 113.049C168.658 112.67 168.91 112.375 169.238 112.162C169.566 111.945 169.956 111.837 170.409 111.837C170.954 111.837 171.404 111.991 171.76 112.301C172.115 112.606 172.353 113.019 172.473 113.541H171.884C171.787 113.185 171.61 112.904 171.351 112.696C171.092 112.483 170.78 112.377 170.416 112.377C169.912 112.377 169.526 112.555 169.258 112.911C168.991 113.262 168.857 113.735 168.857 114.331C168.857 114.931 168.991 115.41 169.258 115.765C169.526 116.116 169.912 116.292 170.416 116.292C170.762 116.292 171.06 116.199 171.309 116.015C171.559 115.825 171.737 115.574 171.843 115.259H172.432C172.302 115.74 172.062 116.123 171.711 116.41C171.365 116.696 170.931 116.839 170.409 116.839ZM179.076 111.941V116.791H178.473V114.594H176.006V116.791H175.41V111.941H176.006V114.109H178.473V111.941H179.076ZM184.256 116.839C183.794 116.839 183.397 116.733 183.064 116.52C182.737 116.308 182.487 116.012 182.316 115.634C182.145 115.255 182.06 114.825 182.06 114.345C182.06 113.864 182.145 113.435 182.316 113.056C182.492 112.673 182.743 112.375 183.071 112.162C183.404 111.945 183.799 111.837 184.256 111.837C184.709 111.837 185.099 111.945 185.427 112.162C185.755 112.375 186.004 112.67 186.175 113.049C186.346 113.428 186.432 113.862 186.432 114.352C186.432 114.837 186.346 115.266 186.175 115.641C186.004 116.015 185.755 116.308 185.427 116.52C185.099 116.733 184.709 116.839 184.256 116.839ZM184.249 116.285C184.568 116.285 184.845 116.204 185.081 116.042C185.316 115.876 185.496 115.645 185.621 115.35C185.746 115.054 185.808 114.717 185.808 114.338C185.808 113.959 185.746 113.622 185.621 113.326C185.496 113.031 185.316 112.8 185.081 112.634C184.845 112.467 184.568 112.384 184.249 112.384C183.931 112.384 183.653 112.47 183.418 112.64C183.182 112.807 183.002 113.038 182.877 113.333C182.753 113.629 182.69 113.964 182.69 114.338C182.69 114.717 182.753 115.054 182.877 115.35C183.002 115.641 183.182 115.869 183.418 116.035C183.653 116.202 183.931 116.285 184.249 116.285ZM191.485 116.839C191.023 116.839 190.625 116.733 190.293 116.52C189.965 116.308 189.716 116.012 189.545 115.634C189.374 115.255 189.288 114.825 189.288 114.345C189.288 113.864 189.374 113.435 189.545 113.056C189.72 112.673 189.972 112.375 190.3 112.162C190.632 111.945 191.027 111.837 191.485 111.837C191.937 111.837 192.328 111.945 192.656 112.162C192.984 112.375 193.233 112.67 193.404 113.049C193.575 113.428 193.66 113.862 193.66 114.352C193.66 114.837 193.575 115.266 193.404 115.641C193.233 116.015 192.984 116.308 192.656 116.52C192.328 116.733 191.937 116.839 191.485 116.839ZM191.478 116.285C191.796 116.285 192.074 116.204 192.309 116.042C192.545 115.876 192.725 115.645 192.85 115.35C192.974 115.054 193.037 114.717 193.037 114.338C193.037 113.959 192.974 113.622 192.85 113.326C192.725 113.031 192.545 112.8 192.309 112.634C192.074 112.467 191.796 112.384 191.478 112.384C191.159 112.384 190.882 112.47 190.646 112.64C190.411 112.807 190.231 113.038 190.106 113.333C189.981 113.629 189.919 113.964 189.919 114.338C189.919 114.717 189.981 115.054 190.106 115.35C190.231 115.641 190.411 115.869 190.646 116.035C190.882 116.202 191.159 116.285 191.478 116.285ZM199.524 116.25V116.791H196.663V111.941H197.266L197.259 116.25H199.524Z" fill="white"/>
<path fill-rule="evenodd" clip-rule="evenodd" d="M120.6 81.0595C122.916 82.2433 122.906 82.1987 121.482 84.9532C120.238 87.3591 119.9 87.4571 117.94 85.975C115.994 84.5022 113.742 84.655 111.51 86.4109C108.829 88.5199 108.829 92.843 111.51 94.952C115.46 98.0589 117.822 96.793 122.351 89.1431C124.6 85.3467 126.789 82.636 128.562 81.4558C135.772 76.6585 145.643 81.9494 145.635 90.608C145.63 96.9486 141.024 101.481 134.581 101.486C131.267 101.489 126.905 99.75 126.905 98.4264C126.905 97.9516 128.487 95.1019 129.576 93.6162C129.7 93.4468 130.204 93.8482 130.694 94.5075C132.293 96.6525 135.776 96.8023 138.076 94.8252C140.845 92.4424 140.878 88.9493 138.153 86.6047C134.134 83.1476 131.425 84.5937 126.706 92.7148C122.79 99.4539 119.782 101.741 114.926 101.667C108.792 101.574 103.848 96.7692 103.848 90.8991C103.848 82.0596 112.552 76.9467 120.6 81.0595Z" fill="white"/>
<path d="M74.4179 102.428C71.4061 102.428 69.3295 101.541 68.1882 99.7653C67.0786 97.99 66.5238 95.5171 66.5238 92.3468V80.1252H71.6597V91.0628C71.6597 92.8699 71.7548 94.2807 71.9451 95.2952C72.167 96.278 72.5791 97.0072 73.1815 97.4827C73.8156 97.9583 74.7508 98.196 75.9872 98.196C76.8749 98.196 77.7309 97.9424 78.5552 97.4352C79.3795 96.9279 80.0452 96.2463 80.5525 95.3903C81.0915 94.5026 81.3609 93.5357 81.3609 92.4894V80.1252H86.4493V101.953H82.2645L81.6938 98.7667C80.9012 100.003 79.9026 100.923 78.6979 101.525C77.5248 102.127 76.0982 102.428 74.4179 102.428Z" fill="white"/>
<path d="M92.5679 84.31H89.437V80.1252H92.5679V71.2324L97.7514 71.2324V80.1252L101.686 80.1252V84.31L97.7514 84.31V101.953H92.5679V84.31Z" fill="white"/>
<path d="M147.797 80.1251H152.838L152.885 84.1198C153.488 82.7882 154.439 81.6945 155.739 80.8385C157.038 79.9825 158.56 79.5545 160.304 79.5545C162.555 79.5545 164.283 80.03 165.487 80.9811C166.692 81.9005 167.501 83.2004 167.913 84.8806C168.325 86.5609 168.531 88.7484 168.531 91.4432V101.953H163.395V91.5859C163.395 88.8277 163.125 86.8462 162.587 85.6415C162.048 84.4051 160.938 83.7869 159.258 83.7869C158.307 83.7869 157.34 84.0881 156.357 84.6904C155.374 85.2611 154.55 86.1012 153.884 87.2108C153.25 88.3204 152.933 89.6203 152.933 91.1103V101.953H147.797V80.1251Z" fill="white"/>
<path d="M172.963 67H178.051V101.953H172.963V67Z" fill="white"/>
<path d="M183.024 80.1251H188.35V101.953H183.024V80.1251ZM185.64 76.0354C184.657 76.0354 183.833 75.7025 183.167 75.0368C182.501 74.371 182.168 73.5467 182.168 72.5639C182.168 71.6762 182.501 70.9154 183.167 70.2813C183.833 69.6472 184.657 69.3302 185.64 69.3302C186.591 69.3302 187.399 69.6472 188.065 70.2813C188.731 70.9154 189.064 71.6762 189.064 72.5639C189.064 73.5467 188.731 74.371 188.065 75.0368C187.431 75.7025 186.623 76.0354 185.64 76.0354Z" fill="white"/>
<path d="M192.846 80.1251H197.887L197.934 84.1198C198.537 82.7882 199.488 81.6945 200.788 80.8385C202.087 79.9825 203.609 79.5545 205.353 79.5545C207.604 79.5545 209.332 80.03 210.536 80.9811C211.741 81.9005 212.549 83.2004 212.962 84.8806C213.374 86.5609 213.58 88.7484 213.58 91.4432V101.953H208.444V91.5859C208.444 88.8277 208.174 86.8462 207.635 85.6415C207.097 84.4051 205.987 83.7869 204.307 83.7869C203.356 83.7869 202.389 84.0881 201.406 84.6904C200.423 85.2611 199.599 86.1012 198.933 87.2108C198.299 88.3204 197.982 89.6203 197.982 91.1103V101.953H192.846V80.1251Z" fill="white"/>
<path d="M57.6675 80.1252V82.5087C59.921 84.552 61.3364 87.5031 61.3364 90.7847C61.3364 94.0431 59.9409 96.9757 57.715 99.0173V101.953H62.5656V80.1252H57.6675Z" fill="white"/>
<path fill-rule="evenodd" clip-rule="evenodd" d="M57.715 99.0173C59.9409 96.9757 61.3364 94.0431 61.3364 90.7847C61.3364 87.5031 59.921 84.552 57.6675 82.5087C57.5384 82.3917 57.4066 82.2777 57.2722 82.1668C55.3417 80.5735 52.8667 79.6165 50.1682 79.6165C44.0002 79.6165 39 84.6167 39 90.7847C39 96.9527 44.0002 101.953 50.1682 101.953C53.0778 101.953 55.7274 100.84 57.715 99.0173ZM50.1682 96.9092C53.5507 96.9092 56.2927 94.1671 56.2927 90.7847C56.2927 87.4022 53.5507 84.6602 50.1682 84.6602C46.7857 84.6602 44.0437 87.4022 44.0437 90.7847C44.0437 94.1671 46.7857 96.9092 50.1682 96.9092Z" fill="white"/>
<path d="M228.859 102.673C222.293 102.673 216.97 97.3506 216.97 90.7847C216.97 84.2187 222.293 78.8959 228.859 78.8959C235.425 78.8959 240.748 84.2187 240.748 90.7847C240.748 91.65 240.655 92.4937 240.48 93.3065H235.225C235.534 92.5261 235.704 91.6752 235.704 90.7847C235.704 90.1612 235.621 89.5573 235.465 88.9833C234.674 86.0768 232.016 83.9396 228.859 83.9396C225.702 83.9396 223.044 86.0768 222.254 88.9833C222.098 89.5573 222.014 90.1612 222.014 90.7847C222.014 91.6752 222.184 92.5261 222.494 93.3065C223.498 95.8389 225.969 97.6297 228.859 97.6297C230.828 97.6297 232.602 96.7986 233.851 95.4681H239.79C237.972 99.7054 233.762 102.673 228.859 102.673Z" fill="white"/>
<path d="M235.225 93.3065C235.534 92.5261 235.704 91.6752 235.704 90.7847C235.704 90.1612 235.621 89.5573 235.465 88.9833H222.254C222.098 89.5573 222.014 90.1612 222.014 90.7847C222.014 91.6752 222.184 92.5261 222.494 93.3065H235.225Z" fill="white"/>
</svg>
